<svg width="36" height="36" viewBox="0 0 36 36" fill="none" xmlns="http://www.w3.org/2000/svg">
<path d="M31.8033 13.2459C31.5284 9.95422 30.1067 6.89719 27.7373 4.54734C25.1159 1.9475 21.6384 0.515625 17.9455 0.515625C14.2523 0.515625 10.775 1.9475 8.15391 4.5475C5.77844 6.90344 4.35625 9.97031 4.08766 13.2719C2.07391 13.7763 0.578125 15.6011 0.578125 17.7688V30.843C0.578125 33.3989 2.65766 35.4784 5.21359 35.4784H30.7864C33.3423 35.4784 35.4219 33.3989 35.4219 30.843V17.7688C35.4219 15.562 33.8719 13.7105 31.8033 13.2459Z" fill="#575353"/>
<path d="M32.0217 13.0578C31.7084 9.78453 30.2497 6.70891 27.9023 4.38078C25.2366 1.73719 21.7005 0.28125 17.9453 0.28125C14.1903 0.28125 10.6539 1.73734 7.98875 4.38094C5.63391 6.71656 4.17469 9.80297 3.86844 13.0881C1.78469 13.6856 0.34375 15.5867 0.34375 17.7686V22.8563C0.34375 22.9856 0.448594 23.0906 0.578125 23.0906C0.707656 23.0906 0.8125 22.9856 0.8125 22.8563V17.7686C0.8125 15.7461 2.18266 13.9903 4.14453 13.4991C4.24203 13.4747 4.31313 13.3909 4.32125 13.2908C4.58438 10.0556 6.00406 7.00969 8.31875 4.71375C10.8958 2.15766 14.3145 0.749844 17.9453 0.749844C21.5759 0.749844 24.9948 2.1575 27.572 4.71359C29.8806 7.00297 31.3003 10.0402 31.5695 13.2652C31.5781 13.3672 31.6519 13.4519 31.7517 13.4744C33.7425 13.9214 35.1873 15.7275 35.1873 17.7684V30.8427C35.1873 33.2694 33.213 35.2438 30.7863 35.2438H5.21359C2.78687 35.2439 0.8125 33.2695 0.8125 30.8428V25.0873C0.8125 24.958 0.707656 24.853 0.578125 24.853C0.448594 24.853 0.34375 24.958 0.34375 25.0873V30.8428C0.34375 33.5281 2.52828 35.7127 5.21359 35.7127H30.7864C33.4717 35.7127 35.6562 33.5281 35.6562 30.8428V17.7686C35.6562 15.5677 34.1378 13.6137 32.0217 13.0578Z" fill="#BC9746"/>
<path d="M5.4248 2.09375C5.27262 3.90047 3.38965 4.18578 3.38965 4.18578C5.00637 4.26187 5.40918 6.3825 5.40918 6.3825C5.44371 4.87047 7.49059 4.16344 7.49059 4.16344C5.9573 4.07172 5.4248 2.09375 5.4248 2.09375Z" fill="#FEDE3A"/>
<path d="M7.50434 3.92941C6.15997 3.84895 5.65575 2.05066 5.65075 2.03238C5.62091 1.9227 5.51591 1.85082 5.40341 1.86019C5.29013 1.87051 5.20059 1.96051 5.19106 2.07379C5.05669 3.66988 3.42341 3.94316 3.3545 3.95379C3.23528 3.97191 3.14934 4.07738 3.15559 4.1977C3.16184 4.31816 3.25825 4.4141 3.37872 4.41973C4.78934 4.48613 5.17528 6.40691 5.17903 6.42645C5.20044 6.53754 5.29762 6.6166 5.40903 6.6166C5.41544 6.6166 5.42216 6.61629 5.42872 6.61582C5.54809 6.60582 5.64075 6.50754 5.64356 6.3877C5.67387 5.05816 7.54841 4.39129 7.56747 4.38473C7.67294 4.34816 7.73809 4.24191 7.72278 4.13129C7.70716 4.02051 7.61591 3.93598 7.50434 3.92941ZM5.38481 5.54598C5.17278 5.05676 4.80528 4.46676 4.19934 4.15895C4.65731 3.93957 5.20075 3.54754 5.48091 2.86645C5.72325 3.34629 6.137 3.94145 6.78309 4.22941C6.31309 4.48535 5.70138 4.91754 5.38481 5.54598Z" fill="#3A312A"/>
<path d="M2.0341 4.74219C1.92645 6.02016 0.594727 6.22188 0.594727 6.22188C1.73816 6.27578 2.02316 7.77563 2.02316 7.77563C2.04754 6.70625 3.49535 6.20609 3.49535 6.20609C2.41082 6.14125 2.0341 4.74219 2.0341 4.74219Z" fill="#FEDE3A"/>
<path d="M3.50927 5.97235C2.60833 5.91845 2.26364 4.69329 2.2602 4.68094C2.23052 4.57126 2.12739 4.4986 2.01302 4.50876C1.89958 4.51891 1.81005 4.60923 1.80052 4.72251C1.71005 5.79594 0.605672 5.98282 0.559578 5.99016C0.440359 6.00829 0.354422 6.11376 0.360672 6.23407C0.366922 6.35454 0.463328 6.45048 0.583797 6.4561C1.52677 6.50048 1.79052 7.80673 1.79302 7.81954C1.81411 7.93094 1.91161 8.01016 2.02302 8.01016C2.02958 8.01016 2.03598 8.00985 2.04255 8.00938C2.16208 7.99954 2.25473 7.9011 2.25755 7.7811C2.27786 6.88923 3.55942 6.43219 3.57208 6.42782C3.67786 6.39126 3.74302 6.28516 3.7277 6.17438C3.71223 6.0636 3.62098 5.97891 3.50927 5.97235ZM2.01161 7.03407C1.86723 6.73938 1.64598 6.41735 1.31677 6.20907C1.60677 6.04641 1.89442 5.79813 2.07786 5.44094C2.24302 5.73376 2.49255 6.05876 2.84989 6.25719C2.56098 6.42907 2.22661 6.68532 2.01161 7.03407Z" fill="#3A312A"/>
<path d="M2.0341 0.578125C1.92645 1.85609 0.594727 2.05797 0.594727 2.05797C1.73816 2.11172 2.02316 3.61172 2.02316 3.61172C2.04754 2.54219 3.49535 2.04219 3.49535 2.04219C2.41082 1.97719 2.0341 0.578125 2.0341 0.578125Z" fill="#FEDE3A"/>
<path d="M3.50927 1.80869C2.60833 1.75478 2.26364 0.529468 2.2602 0.517124C2.23052 0.407437 2.12614 0.333374 2.01317 0.344937C1.89973 0.355093 1.81005 0.445406 1.80052 0.558687C1.71005 1.63228 0.605672 1.819 0.559578 1.82634C0.440359 1.84447 0.354422 1.94994 0.360672 2.07025C0.366922 2.19072 0.463328 2.28666 0.58364 2.29228C1.52661 2.33666 1.79052 3.64306 1.79286 3.65587C1.81395 3.76728 1.91145 3.8465 2.02286 3.8465C2.02942 3.8465 2.03583 3.84619 2.04239 3.84572C2.16192 3.83587 2.25458 3.73744 2.25739 3.61744C2.2777 2.72556 3.55927 2.26853 3.57192 2.26416C3.6777 2.22759 3.74286 2.1215 3.72755 2.01072C3.71223 1.89994 3.62098 1.81525 3.50927 1.80869ZM2.01161 2.87041C1.86723 2.57572 1.64598 2.25369 1.31677 2.04541C1.60661 1.88275 1.89442 1.63447 2.07786 1.27728C2.24302 1.56994 2.49255 1.89509 2.84989 2.09353C2.56098 2.26541 2.22661 2.52166 2.01161 2.87041Z" fill="#3A312A"/>
<path d="M30.7859 15.4781H30.6797C30.0375 15.4781 29.5141 14.9594 29.5078 14.3172C29.45 8 24.2625 2.85938 17.9453 2.85938C11.6266 2.85938 6.44062 7.99844 6.38594 14.3156C6.37969 14.9594 5.85625 15.4781 5.21406 15.4781C3.95 15.4781 2.92188 16.5063 2.92188 17.7688V30.8438C2.92188 32.1078 3.95 33.1344 5.21406 33.1344H30.7859C32.05 33.1344 33.0781 32.1078 33.0781 30.8438V17.7688C33.0781 16.5063 32.05 15.4781 30.7859 15.4781Z" fill="#FAA51F"/>
<path d="M30.7859 15.2436H30.6797C30.1678 15.2436 29.7472 14.8269 29.7422 14.315C29.6831 7.86906 24.3911 2.625 17.9453 2.625C11.498 2.625 6.20734 7.86859 6.15156 14.3134C6.14656 14.8264 5.72594 15.2438 5.21406 15.2438C3.82094 15.2438 2.6875 16.3764 2.6875 17.7688V30.8439C2.6875 32.2361 3.82094 33.3688 5.21406 33.3688H19.9942C20.1236 33.3688 20.2286 33.2638 20.2286 33.1344C20.2286 33.005 20.1236 32.9 19.9942 32.9H5.21406C4.07937 32.9 3.15625 31.9777 3.15625 30.8439V17.7688C3.15625 16.6348 4.07937 15.7125 5.21406 15.7125C5.98203 15.7125 6.61281 15.0869 6.62031 14.3177C6.67391 8.12891 11.7542 3.09375 17.9453 3.09375C24.1352 3.09375 29.2169 8.12953 29.2734 14.3195C29.2809 15.0877 29.9117 15.7125 30.6797 15.7125H30.7859C31.9206 15.7125 32.8438 16.6348 32.8438 17.7688V30.8439C32.8438 31.9777 31.9206 32.9 30.7859 32.9H22.1516C22.0222 32.9 21.9172 33.005 21.9172 33.1344C21.9172 33.2638 22.0222 33.3688 22.1516 33.3688H30.7859C32.1791 33.3688 33.3125 32.2361 33.3125 30.8439V17.7688C33.3125 16.3763 32.1791 15.2436 30.7859 15.2436Z" fill="#3A312A"/>
<path d="M21.9406 9.90101C22.3301 9.52133 22.1151 8.85992 21.577 8.78164L19.8732 8.53414C19.6595 8.50305 19.4748 8.36883 19.3791 8.17523L18.6173 6.63148C18.3765 6.14367 17.681 6.14367 17.4402 6.63148L16.6784 8.17523C16.5827 8.36883 16.3981 8.5032 16.1843 8.53414L14.4806 8.78164C13.9423 8.85992 13.7274 9.52133 14.1168 9.90101L15.3496 11.1027C15.5043 11.2535 15.5748 11.4707 15.5384 11.6835L15.2473 13.3802C15.1552 13.9163 15.7181 14.3252 16.1995 14.0721L17.7232 13.271C17.9145 13.1705 18.1427 13.1705 18.334 13.271L19.8577 14.0721C20.3391 14.3252 20.9018 13.9163 20.8099 13.3802L20.519 11.6835C20.4824 11.4707 20.5531 11.2535 20.7077 11.1027L21.9406 9.90101Z" fill="white"/>
<path d="M22.1035 10.0692C22.348 9.83078 22.4344 9.48063 22.3286 9.15594C22.223 8.83125 21.9477 8.59906 21.6097 8.55L19.906 8.30234C19.7686 8.28234 19.6499 8.19609 19.5885 8.07156L18.8266 6.52766C18.6755 6.22141 18.3694 6.03125 18.0279 6.03125C17.6865 6.03125 17.3804 6.22156 17.2293 6.52766L16.4672 8.07156C16.4058 8.19609 16.2871 8.28234 16.1496 8.30234L14.446 8.55C14.108 8.59891 13.8325 8.83125 13.7269 9.15594C13.6213 9.48078 13.7077 9.83063 13.9522 10.0692L15.185 11.2708C15.2844 11.3677 15.3299 11.5073 15.3063 11.6442L15.0152 13.3409C14.9575 13.6775 15.0933 14.0113 15.3696 14.212C15.5257 14.3255 15.7083 14.383 15.8922 14.383C16.0338 14.383 16.1761 14.3489 16.3077 14.2798L17.8313 13.4788C17.9544 13.4141 18.1013 13.4141 18.224 13.4788L19.7479 14.2798C20.0504 14.4389 20.4094 14.413 20.6857 14.212C20.9619 14.0114 21.0979 13.6775 21.04 13.3409L20.7491 11.6442C20.7257 11.5073 20.771 11.3678 20.8704 11.2708L22.1035 10.0692ZM20.5435 10.9352C20.3333 11.14 20.2375 11.4345 20.2872 11.7236L20.5782 13.4202C20.606 13.582 20.5432 13.7363 20.4104 13.8328C20.2774 13.9294 20.1113 13.9414 19.9661 13.8648L18.4421 13.0638C18.1829 12.9278 17.8732 12.9277 17.6133 13.0638L16.0896 13.8648C15.9443 13.9413 15.7782 13.9294 15.6452 13.8328C15.5124 13.7364 15.4496 13.5822 15.4774 13.4203L15.7685 11.7234C15.818 11.4344 15.7222 11.1398 15.5122 10.9352L14.2794 9.73359C14.1618 9.61906 14.1219 9.45719 14.1727 9.30094C14.2235 9.14484 14.3508 9.0375 14.5133 9.01391L16.2169 8.76625C16.5069 8.72422 16.7577 8.54203 16.8875 8.27922L17.6494 6.73531C17.7221 6.58813 17.8635 6.50016 18.0277 6.50016C18.1919 6.50016 18.3333 6.58813 18.4061 6.73531L19.1679 8.27922C19.2977 8.54219 19.5485 8.72437 19.8385 8.76625L21.5421 9.01391C21.7046 9.0375 21.8318 9.14484 21.8827 9.30094C21.9335 9.45703 21.8935 9.61891 21.776 9.73359L20.5435 10.9352Z" fill="#3A312A"/>
<path d="M14.4297 19.7394C14.218 19.4764 13.8874 19.2911 13.4383 19.183C13.7339 19.0806 13.9585 18.9414 14.1119 18.765C14.3422 18.5008 14.4574 18.1837 14.4574 17.8142C14.4574 17.3736 14.296 17.0039 13.9735 16.7055C13.6508 16.407 13.1882 16.2578 12.5855 16.2578H8.96973V22.5087H12.3041C12.4463 22.5087 12.7347 22.4803 13.1697 22.4234C13.4966 22.3809 13.7411 22.3127 13.903 22.2188C14.1646 22.0681 14.3707 21.8634 14.5213 21.6047C14.6719 21.3461 14.7472 21.0545 14.7472 20.7305C14.7474 20.3328 14.6414 20.0023 14.4297 19.7394ZM10.9183 17.5244H11.7711C12.0639 17.5244 12.2693 17.5755 12.3872 17.6777C12.5052 17.78 12.5643 17.9222 12.5643 18.1041C12.5643 18.3002 12.5052 18.4502 12.3872 18.5539C12.2693 18.6577 12.0596 18.7095 11.7583 18.7095H10.9183V17.5244ZM12.6069 20.9887C12.4705 21.1067 12.236 21.1658 11.9035 21.1658H10.9185V19.8994H11.8991C12.2374 19.8994 12.4739 19.9555 12.6091 20.0678C12.7441 20.1802 12.8116 20.3286 12.8116 20.5134C12.8116 20.7122 12.7433 20.8708 12.6069 20.9887Z" fill="white"/>
<path d="M10.9185 18.9439H11.7583C12.1221 18.9439 12.3785 18.8739 12.5421 18.7298C12.7124 18.58 12.7988 18.3695 12.7988 18.1041C12.7988 17.8556 12.7096 17.647 12.541 17.5006C12.3775 17.3589 12.1258 17.2898 11.7713 17.2898H10.9186C10.7891 17.2898 10.6843 17.3948 10.6843 17.5242V18.7095C10.6841 18.8389 10.7889 18.9439 10.9185 18.9439ZM11.1529 17.7586H11.7711C12.0886 17.7586 12.2004 17.8258 12.2336 17.8545C12.275 17.8903 12.33 17.9555 12.33 18.1041C12.33 18.2922 12.2566 18.3567 12.2324 18.378C12.1993 18.4073 12.0866 18.4752 11.7583 18.4752H11.1529V17.7586ZM12.7588 19.8873C12.5786 19.7375 12.2974 19.6647 11.8991 19.6647H10.9185C10.7889 19.6647 10.6841 19.7697 10.6841 19.8991V21.1655C10.6841 21.2948 10.7889 21.3998 10.9185 21.3998H11.9035C12.2979 21.3998 12.5782 21.3233 12.76 21.1658C12.9471 21.0044 13.046 20.7784 13.046 20.513C13.046 20.26 12.9468 20.0436 12.7588 19.8873ZM12.4535 20.8113C12.4018 20.8561 12.2614 20.9312 11.9033 20.9312H11.1527V20.1336H11.8989C12.2668 20.1336 12.4077 20.2052 12.4589 20.2478C12.5405 20.3158 12.5771 20.3977 12.5771 20.5131C12.5772 20.6438 12.5379 20.7383 12.4535 20.8113ZM14.6122 19.5922C14.4664 19.4113 14.2735 19.2619 14.0354 19.1453C14.1324 19.0769 14.2169 19.0014 14.2886 18.9189C14.5561 18.612 14.6918 18.2403 14.6918 17.8142C14.6918 17.3077 14.5036 16.8767 14.1325 16.5334C13.7668 16.1952 13.2461 16.0234 12.5855 16.0234H8.96973C8.8402 16.0234 8.73535 16.1284 8.73535 16.2578V22.5088C8.73535 22.6381 8.8402 22.7431 8.96973 22.7431H12.3039C12.4582 22.7431 12.7513 22.7145 13.1999 22.6558C13.5611 22.6087 13.8296 22.5322 14.0197 22.4219C14.3158 22.2514 14.5527 22.0161 14.7235 21.7227C14.8946 21.4291 14.9813 21.0952 14.9813 20.7305C14.9818 20.2798 14.8574 19.8969 14.6122 19.5922ZM14.3188 21.4867C14.1877 21.7116 14.0135 21.8847 13.7855 22.0159C13.6932 22.0694 13.5061 22.1431 13.1393 22.1909C12.613 22.2597 12.3946 22.2742 12.3039 22.2742H9.2041V16.492H12.5855C13.1244 16.492 13.5379 16.6217 13.8143 16.8775C14.0893 17.1319 14.223 17.4383 14.223 17.8141C14.223 18.1281 14.1288 18.3887 13.9352 18.6111C13.8097 18.7552 13.6168 18.873 13.3616 18.9614C13.2633 18.9955 13.1991 19.0902 13.2043 19.1942C13.2093 19.2981 13.2822 19.3863 13.3835 19.4106C13.7791 19.5058 14.0697 19.6659 14.2471 19.8861C14.426 20.1084 14.5129 20.3845 14.5129 20.7305C14.513 21.0152 14.4494 21.2625 14.3188 21.4867Z" fill="#3A312A"/>
<path d="M18.6439 16.2578H16.708V22.5088H18.6439V16.2578Z" fill="white"/>
<path d="M18.6439 16.0234H16.708C16.5785 16.0234 16.4736 16.1284 16.4736 16.2578V22.5088C16.4736 22.6381 16.5785 22.7431 16.708 22.7431H18.6439C18.7733 22.7431 18.8783 22.6381 18.8783 22.5088V16.2578C18.8783 16.1283 18.7733 16.0234 18.6439 16.0234ZM18.4096 22.2742H16.9424V16.492H18.4096V22.2742Z" fill="#3A312A"/>
<path d="M24.0453 18.9411V20.2416H25.3372V20.83C25.0842 20.9808 24.8597 21.0872 24.6634 21.1498C24.4673 21.2123 24.2612 21.2438 24.0452 21.2438C23.5903 21.2438 23.2356 21.0986 22.9813 20.8087C22.7269 20.5189 22.5997 20.0356 22.5997 19.3591C22.5997 18.7225 22.7256 18.2569 22.977 17.9627C23.2286 17.6684 23.5663 17.5214 23.9898 17.5214C24.2741 17.5214 24.5078 17.5837 24.6913 17.7089C24.8745 17.8341 25.0047 18.0145 25.0814 18.2505L26.9447 17.9178C26.8311 17.5142 26.6612 17.1809 26.4352 16.918C26.2092 16.6552 25.9248 16.4611 25.5823 16.3359C25.2398 16.2109 24.7231 16.1484 24.0323 16.1484C23.3161 16.1484 22.7462 16.2494 22.3227 16.4513C21.7795 16.7128 21.3675 17.0958 21.0861 17.6003C20.8047 18.1048 20.6641 18.6983 20.6641 19.3806C20.6641 20.0287 20.7925 20.603 21.05 21.1031C21.3072 21.6034 21.6697 21.9802 22.1372 22.2331C22.6048 22.4861 23.2095 22.6127 23.9516 22.6127C24.5541 22.6127 25.075 22.5423 25.5142 22.4014C25.9534 22.2608 26.4588 21.9956 27.03 21.6063V18.9413L24.0453 18.9411Z" fill="white"/>
<path d="M27.03 18.7072H24.0452C23.9158 18.7072 23.8108 18.8122 23.8108 18.9416V20.242C23.8108 20.3714 23.9158 20.4764 24.0452 20.4764H25.1028V20.6952C24.9127 20.8016 24.7414 20.8794 24.5922 20.9269C24.42 20.9819 24.2361 21.0095 24.0452 21.0095C23.6577 21.0095 23.3672 20.8933 23.1575 20.6544C22.9428 20.4098 22.8341 19.9741 22.8341 19.3592C22.8341 18.783 22.942 18.3645 23.1552 18.1152C23.3619 17.8734 23.6348 17.7559 23.9898 17.7559C24.2248 17.7559 24.4166 17.8053 24.5592 17.9027C24.6998 17.9986 24.7978 18.1361 24.8586 18.323C24.8948 18.4342 25.0069 18.5016 25.1227 18.4813L26.9859 18.1486C27.0511 18.137 27.1081 18.0984 27.1434 18.0423C27.1786 17.9863 27.1883 17.918 27.1703 17.8544C27.048 17.4197 26.8605 17.0531 26.6131 16.765C26.3616 16.4727 26.0419 16.2541 25.6628 16.1158C25.2908 15.98 24.7575 15.9141 24.0325 15.9141C23.2844 15.9141 22.6752 16.0236 22.2211 16.24C21.6363 16.5217 21.1855 16.9408 20.8814 17.4861C20.5817 18.0236 20.4297 18.6611 20.4297 19.3805C20.4297 20.0636 20.5683 20.6794 20.8416 21.2102C21.1194 21.7509 21.5178 22.1644 22.0256 22.4392C22.5258 22.7097 23.1738 22.8469 23.9516 22.8469C24.5758 22.8469 25.1258 22.772 25.5858 22.6245C26.0445 22.4777 26.5748 22.2 27.162 21.7998C27.2261 21.7563 27.2644 21.6838 27.2644 21.6063V18.9413C27.2644 18.8122 27.1594 18.7072 27.03 18.7072ZM26.7956 21.4817C26.2872 21.8194 25.8325 22.0536 25.4427 22.1784C25.0289 22.3112 24.5272 22.3784 23.9516 22.3784C23.2523 22.3784 22.6795 22.2602 22.2487 22.0272C21.8256 21.7981 21.4923 21.4513 21.2584 20.9959C21.0197 20.5319 20.8984 19.9884 20.8984 19.3806C20.8984 18.742 21.0305 18.1814 21.2908 17.7145C21.547 17.2555 21.9283 16.9016 22.4236 16.6631C22.8133 16.4773 23.3547 16.3831 24.0325 16.3831C24.6925 16.3831 25.1869 16.4414 25.502 16.5564C25.8048 16.6669 26.0589 16.84 26.2575 17.0709C26.413 17.2519 26.5406 17.4744 26.6384 17.7347L25.2272 17.9866C25.1317 17.7916 24.9964 17.6336 24.8236 17.5155C24.6014 17.3639 24.3209 17.2872 23.99 17.2872C23.4969 17.2872 23.0961 17.4633 22.7991 17.8106C22.5073 18.152 22.3656 18.6586 22.3656 19.3592C22.3656 20.1014 22.5095 20.6261 22.8053 20.9636C23.1052 21.3053 23.5223 21.4784 24.0453 21.4784C24.2845 21.4784 24.5167 21.4431 24.7348 21.3734C24.9472 21.3056 25.1903 21.1908 25.4572 21.0316C25.5281 20.9892 25.5716 20.9128 25.5716 20.8303V20.2419C25.5716 20.1125 25.4666 20.0075 25.3372 20.0075H24.2795V19.1758H26.7956V21.4817Z" fill="#3A312A"/>
<path d="M14.6643 24.4219L14.003 27.9166L13.034 24.4219H11.206L10.2393 27.9212L9.57883 24.4219H7.74414L9.13492 30.6727H11.029L12.121 26.7372L13.2174 30.6727H15.1116L16.4895 24.4219H14.6643Z" fill="white"/>
<path d="M16.6721 24.2752C16.6276 24.2198 16.5604 24.1875 16.4894 24.1875H14.6643C14.5516 24.1875 14.4549 24.2677 14.434 24.3783L13.9599 26.8839L13.2598 24.3594C13.2316 24.2578 13.1393 24.1875 13.034 24.1875H11.206C11.1005 24.1875 11.0082 24.2578 10.9801 24.3595L10.2823 26.8855L9.80913 24.3784C9.78819 24.2677 9.69147 24.1875 9.57882 24.1875H7.74413C7.67304 24.1875 7.60585 24.2198 7.56132 24.2753C7.51679 24.3308 7.49991 24.4034 7.51538 24.473L8.906 30.7239C8.92991 30.8311 9.02491 30.9073 9.13476 30.9073H11.029C11.1343 30.9073 11.2266 30.8372 11.2548 30.7356L12.1215 27.6123L12.9916 30.7358C13.0199 30.837 13.1121 30.9073 13.2174 30.9073H15.1116C15.2216 30.9073 15.3168 30.8309 15.3405 30.7234L16.7183 24.4725C16.7337 24.4031 16.7166 24.3306 16.6721 24.2752ZM14.9232 30.4384H13.3954L12.3468 26.6744C12.3185 26.573 12.2263 26.5028 12.121 26.5028C12.0158 26.5028 11.9233 26.5731 11.8952 26.6745L10.8508 30.4384H9.32288L8.03647 24.6562H9.3846L10.009 27.9648C10.0291 28.072 10.1207 28.1509 10.2296 28.1556C10.3402 28.1609 10.4362 28.0889 10.4652 27.9837L11.3844 24.6562H12.8558L13.7773 27.9792C13.8065 28.0844 13.9044 28.1539 14.0129 28.1509C14.1218 28.1464 14.2132 28.0673 14.2333 27.9603L14.8585 24.6562H16.1977L14.9232 30.4384Z" fill="#3A312A"/>
<path d="M20.0061 24.4219H18.0703V30.6728H20.0061V24.4219Z" fill="white"/>
<path d="M20.0061 24.1875H18.0703C17.9408 24.1875 17.8359 24.2925 17.8359 24.4219V30.6728C17.8359 30.8022 17.9408 30.9072 18.0703 30.9072H20.0061C20.1355 30.9072 20.2405 30.8022 20.2405 30.6728V24.4219C20.2405 24.2925 20.1355 24.1875 20.0061 24.1875ZM19.7717 30.4383H18.3047V24.6561H19.7717V30.4383Z" fill="#3A312A"/>
<path d="M26.4357 24.4219V27.88L24.0819 24.4219H22.2783V30.6727H24.0947V27.2406L26.4357 30.6727H28.2564V24.4219H26.4357Z" fill="white"/>
<path d="M28.2563 24.1875H26.4357C26.3063 24.1875 26.2013 24.2925 26.2013 24.4219V27.1192L24.2757 24.2902C24.2321 24.2261 24.1594 24.1877 24.0819 24.1877H22.2783C22.1489 24.1877 22.0439 24.2927 22.0439 24.422V30.673C22.0439 30.8023 22.1489 30.9073 22.2783 30.9073H24.0947C24.2241 30.9073 24.3291 30.8023 24.3291 30.673V28.0002L26.2421 30.8048C26.2857 30.8687 26.3582 30.907 26.4357 30.907H28.2563C28.3857 30.907 28.4907 30.802 28.4907 30.6727V24.4217C28.4907 24.2925 28.3857 24.1875 28.2563 24.1875ZM28.0219 30.4383H26.5596L24.2883 27.1083C24.2304 27.0234 24.1239 26.9866 24.0255 27.0164C23.9272 27.0467 23.8602 27.1375 23.8602 27.2405V30.4383H22.5125V24.6561H23.9577L26.2418 28.0119C26.2997 28.097 26.4066 28.1342 26.5046 28.1041C26.6028 28.0737 26.67 27.983 26.67 27.88V24.6561H28.0219V30.4383Z" fill="#3A312A"/>
<path d="M30.7859 15.7125H30.6797C29.9109 15.7125 29.2812 15.0875 29.2734 14.3187C29.2172 8.12969 24.1344 3.09375 17.9453 3.09375C17.55 3.09375 17.1594 3.11406 16.7734 3.15469C22.4203 3.74219 26.8766 8.525 26.9297 14.3187C26.9375 15.0875 27.5672 15.7125 28.3359 15.7125H28.4422C29.5766 15.7125 30.5 16.6344 30.5 17.7687V30.8438C30.5 31.9781 29.5766 32.9 28.4422 32.9H30.7859C31.9203 32.9 32.8437 31.9781 32.8437 30.8438V17.7687C32.8437 16.6344 31.9203 15.7125 30.7859 15.7125Z" fill="#BB8126"/>
</svg>
