<svg width="39" height="45" viewBox="0 0 39 45" fill="none" xmlns="http://www.w3.org/2000/svg">
<path d="M8.58639 26.6562L6.18555 35.3872C7.86311 36.0152 9.04054 37.6737 8.94298 39.5878C8.7389 43.5833 13.6639 45.623 16.3451 42.6536C17.0034 41.9248 17.8511 41.4796 18.7404 41.3192L21.7748 30.2816L8.58639 26.6562Z" fill="#E7AD27"/>
<path d="M32.8169 35.3872L30.4161 26.6562L17.2266 30.2827L20.261 41.3203C21.1502 41.4807 21.998 41.9259 22.6562 42.6548C25.3374 45.6242 30.2624 43.5844 30.0584 39.5889C29.9619 37.6737 31.1405 36.014 32.8169 35.3872Z" fill="#E7AD27"/>
<path d="M22.6571 2.34262C25.3382 -0.626759 30.2633 1.41302 30.0592 5.40844C29.9302 7.92479 32.0059 10.0004 34.5222 9.87147C38.5177 9.66738 40.5574 14.5924 37.588 17.2736C35.7176 18.9624 35.7176 21.897 37.588 23.5858C40.5574 26.267 38.5177 31.192 34.5222 30.9879C32.0059 30.8589 29.9302 32.9346 30.0592 35.451C30.2633 39.4464 25.3382 41.4861 22.6571 38.5168C20.9683 36.6463 18.0337 36.6463 16.3449 38.5168C13.6637 41.4861 8.73867 39.4464 8.94276 35.451C9.07171 32.9346 6.99606 30.8589 4.47972 30.9879C0.484292 31.192 -1.55547 26.267 1.41391 23.5858C3.28435 21.897 3.28435 18.9624 1.41391 17.2736C-1.55547 14.5924 0.484292 9.66738 4.47972 9.87147C6.99606 10.0004 9.07171 7.92479 8.94276 5.40844C8.73867 1.41302 13.6637 -0.626759 16.3449 2.34262C18.0337 4.21193 20.9694 4.21193 22.6571 2.34262Z" fill="#FEDE3A"/>
<path d="M25.9393 32.6324C32.6879 29.0762 35.2758 20.7226 31.7196 13.974C28.1634 7.22542 19.8097 4.63751 13.0612 8.19372C6.31259 11.7499 3.72468 20.1036 7.28089 26.8522C10.8371 33.6007 19.1908 36.1886 25.9393 32.6324Z" fill="#F7CB15"/>
<path d="M19.5028 31.119C25.4167 31.119 30.2108 26.3249 30.2108 20.411C30.2108 14.4972 25.4167 9.70312 19.5028 9.70312C13.589 9.70312 8.79492 14.4972 8.79492 20.411C8.79492 26.3249 13.589 31.119 19.5028 31.119Z" fill="#E7AD27"/>
<path d="M21.0781 14.2939L21.6612 16.087C21.8832 16.7699 22.5202 17.233 23.2378 17.233H25.124C26.7298 17.233 27.3981 19.2885 26.0984 20.2327L24.5723 21.3417C23.9914 21.7645 23.7481 22.5124 23.9701 23.1953L24.5532 24.9884C25.05 26.5157 23.3006 27.7862 22.0021 26.842L20.4759 25.733C19.8951 25.3113 19.1079 25.3113 18.527 25.733L17.0008 26.842C15.7011 27.7862 13.9529 26.5157 14.4497 24.9884L15.0328 23.1953C15.2548 22.5124 15.0115 21.7633 14.4306 21.3417L12.9045 20.2327C11.6048 19.2885 12.2731 17.233 13.8789 17.233H15.7651C16.4839 17.233 17.1197 16.771 17.3417 16.087L17.9248 14.2939C18.4205 12.7666 20.5825 12.7666 21.0781 14.2939Z" fill="#FFF335"/>
</svg>